<?xml version="1.0" standalone="no"?>
<!DOCTYPE svg PUBLIC "-//W3C//DTD SVG 20010904//EN"
 "http://www.w3.org/TR/2001/REC-SVG-20010904/DTD/svg10.dtd">
<svg version="1.0" xmlns="http://www.w3.org/2000/svg"
 width="1080.000000pt" height="1080.000000pt" viewBox="0 0 1080.000000 1080.000000"
 preserveAspectRatio="xMidYMid meet">
<metadata>
Created by potrace 1.16, written by Peter Selinger 2001-2019
</metadata>
<g transform="translate(0.000000,1080.000000) scale(0.100000,-0.100000)"
fill="#000000" stroke="none">
<path d="M5334 6376 c-163 -76 -166 -314 -5 -398 62 -33 148 -38 209 -13 57
24 110 82 127 139 19 63 19 93 0 147 -46 128 -199 186 -331 125z m183 -31 c50
-21 72 -42 94 -90 33 -71 15 -170 -37 -217 -90 -80 -245 -52 -300 54 -18 35
-18 131 0 166 18 35 64 78 96 91 38 15 106 13 147 -4z"/>
<path d="M5786 6149 c-57 -208 -60 -240 -24 -226 8 3 20 30 28 61 7 32 17 59
21 62 4 2 41 -5 81 -16 40 -11 88 -20 106 -20 83 0 145 64 146 151 2 97 -59
140 -275 192 l-26 7 -57 -211z m191 131 c113 -32 151 -98 103 -177 -31 -51
-78 -60 -178 -33 -66 18 -82 26 -78 39 3 9 14 52 26 96 28 108 27 105 42 100
7 -2 45 -13 85 -25z"/>
<path d="M4842 6332 c-10 -7 -4 -50 28 -203 22 -107 42 -204 45 -215 l5 -22
137 29 c76 16 141 29 146 29 10 0 9 28 -2 34 -5 3 -61 -5 -125 -18 -64 -13
-118 -21 -120 -17 -1 3 -20 93 -42 199 -21 105 -43 192 -49 192 -5 0 -16 -4
-23 -8z"/>
<path d="M4521 6225 c-68 -30 -126 -57 -129 -60 -8 -7 161 -404 172 -405 14 0
286 114 286 120 0 3 -4 11 -9 19 -10 15 -10 15 -169 -53 l-83 -36 -29 66 c-17
36 -30 72 -30 79 0 7 43 30 96 51 53 22 99 45 101 52 13 32 -18 28 -116 -14
-57 -24 -105 -43 -106 -42 -17 26 -56 141 -49 147 5 4 57 28 117 52 75 31 106
48 105 59 -5 26 -30 20 -157 -35z"/>
<path d="M6323 6188 c-16 -20 -193 -364 -193 -375 0 -5 61 -41 135 -80 124
-65 136 -69 145 -53 9 17 -3 26 -101 76 -61 32 -113 63 -115 69 -2 5 12 41 32
78 l35 67 104 -55 c86 -46 104 -53 109 -39 3 8 6 17 6 19 0 2 -44 27 -97 56
-54 29 -99 53 -101 54 -5 4 69 135 76 135 3 0 55 -25 115 -56 86 -44 111 -53
118 -43 5 8 9 16 9 19 0 4 -236 130 -259 138 -4 1 -13 -3 -18 -10z"/>
<path d="M4249 6097 c-14 -9 -11 -32 26 -218 40 -200 41 -208 21 -197 -12 6
-92 53 -179 105 -147 88 -161 94 -185 83 -25 -11 -18 -16 183 -136 115 -68
212 -124 215 -124 3 0 13 6 22 13 15 11 13 32 -30 244 -26 127 -49 234 -52
236 -3 3 -12 0 -21 -6z"/>
<path d="M6605 5800 c-75 -89 -138 -167 -141 -174 -3 -7 3 -17 13 -20 14 -6
29 5 63 43 l45 51 58 -48 59 -47 -7 -91 c-5 -76 -3 -93 10 -104 8 -7 18 -11
20 -8 3 2 8 43 11 89 l7 85 51 -4 c41 -3 57 1 85 20 73 50 90 142 40 212 -22
31 -160 156 -172 156 -3 0 -67 -72 -142 -160z m236 28 c59 -57 74 -93 57 -137
-23 -61 -85 -93 -139 -72 -14 5 -54 32 -88 61 l-61 51 71 84 c81 96 73 96 160
13z"/>
<path d="M3733 5669 l-101 -110 122 -111 c66 -62 141 -130 164 -152 l44 -41
49 55 c163 180 163 180 148 195 -13 13 -26 2 -103 -85 l-89 -99 -26 19 c-14
10 -43 36 -64 57 l-37 39 26 25 c14 13 49 50 77 82 43 50 48 60 36 72 -12 12
-25 2 -89 -70 -41 -47 -78 -84 -82 -82 -15 5 -109 100 -106 107 2 5 40 49 85
98 61 67 79 92 70 101 -6 6 -14 11 -17 11 -4 0 -52 -50 -107 -111z"/>
<path d="M3519 5330 c-50 -26 -89 -74 -145 -176 -45 -83 -46 -88 -28 -101 40
-29 365 -204 372 -199 4 2 32 52 62 111 50 96 55 113 54 168 0 94 -42 158
-129 198 -53 24 -139 24 -186 -1z m196 -58 c92 -64 102 -147 34 -278 -23 -46
-45 -84 -47 -84 -3 0 -76 39 -163 87 l-157 88 33 60 c49 87 82 125 129 146 54
26 117 19 171 -19z"/>
<path d="M7065 5206 c-117 -8 -160 -14 -159 -23 1 -7 2 -18 3 -24 1 -8 22 -9
69 -4 l68 7 57 -106 c31 -58 57 -110 57 -114 0 -5 -16 -30 -36 -56 -24 -32
-33 -52 -29 -66 4 -11 9 -20 13 -20 16 0 294 379 290 397 -3 16 -14 18 -88 19
-47 1 -157 -4 -245 -10z m209 -126 c-43 -55 -80 -100 -83 -100 -3 0 -27 41
-53 90 l-47 89 32 6 c30 5 88 9 185 13 l42 2 -76 -100z"/>
<path d="M7320 4822 c-184 -52 -205 -59 -202 -77 2 -11 5 -21 7 -23 1 -1 30 5
64 14 37 11 65 14 70 8 4 -5 16 -38 26 -74 9 -36 26 -80 37 -99 71 -115 250
-84 274 48 8 42 -42 261 -60 260 -6 0 -103 -26 -216 -57z m210 -44 c6 -24 16
-59 21 -79 21 -81 -26 -149 -102 -149 -51 0 -75 13 -95 52 -14 28 -55 160 -51
164 5 5 184 53 199 53 12 1 21 -12 28 -41z"/>
<path d="M3340 4690 c-74 -14 -132 -63 -160 -135 -10 -26 -51 -238 -47 -241 4
-4 440 -74 442 -72 10 13 35 243 30 270 -27 126 -141 202 -265 178z m103 -52
c55 -17 101 -65 116 -122 10 -43 6 -116 -14 -202 l-5 -21 -177 29 c-97 16
-178 30 -180 31 -1 2 4 41 12 86 18 106 50 162 107 190 49 24 83 26 141 9z"/>
<path d="M7430 4374 c-113 -12 -208 -23 -212 -23 -5 -1 -8 -12 -8 -25 0 -22 3
-24 33 -20 35 5 396 44 407 44 4 0 5 11 2 25 -2 14 -7 24 -11 24 -3 -1 -98
-12 -211 -25z"/>
<path d="M3338 4127 c-205 -20 -208 -21 -208 -44 0 -27 -15 -27 182 -7 88 9
162 14 164 11 3 -2 -67 -73 -156 -158 -119 -114 -160 -159 -160 -176 0 -18 4
-23 18 -20 9 3 108 13 220 23 200 17 202 18 202 41 0 27 12 27 -184 7 -87 -8
-160 -13 -162 -11 -3 3 67 73 156 158 117 111 160 159 160 176 0 13 -6 22 -12
22 -7 -1 -106 -11 -220 -22z"/>
<path d="M7225 3972 c-3 -3 -5 -13 -5 -22 0 -13 30 -23 158 -50 86 -18 160
-36 164 -39 4 -4 -59 -28 -140 -55 -81 -26 -153 -54 -160 -61 -11 -10 9 -33
110 -126 68 -63 119 -115 114 -117 -6 -1 -81 13 -166 31 -153 33 -169 34 -170
1 0 -6 88 -29 199 -53 110 -23 209 -45 221 -48 18 -5 21 -2 18 19 -2 17 -43
62 -133 143 -71 65 -131 122 -133 126 -2 4 77 34 175 66 147 49 179 63 181 80
3 18 -7 22 -80 37 -46 9 -142 29 -215 45 -73 16 -135 26 -138 23z"/>
<path d="M3595 3698 c-3 -7 13 -67 35 -132 22 -66 39 -120 37 -121 -1 -1 -37
-14 -79 -28 l-77 -25 -36 109 c-20 60 -40 109 -43 109 -4 0 -13 -4 -20 -9 -10
-6 -5 -29 23 -106 19 -54 34 -103 32 -108 -2 -8 -120 -56 -139 -57 -3 0 -23
51 -43 113 -41 124 -45 130 -67 122 -14 -6 -9 -27 31 -148 26 -78 52 -142 57
-142 27 0 414 139 413 149 0 6 -21 71 -47 145 -44 126 -65 161 -77 129z"/>
<path d="M7111 3482 c-9 -17 -4 -28 30 -70 l40 -51 -56 -110 -55 -111 -69 0
c-55 0 -70 -3 -75 -16 -4 -9 -5 -18 -3 -20 2 -2 110 -9 241 -15 248 -12 255
-11 256 28 0 9 -243 327 -285 372 -11 11 -15 10 -24 -7z m175 -252 c37 -47 71
-90 76 -97 7 -9 -15 -11 -99 -7 -171 8 -162 -1 -106 104 27 49 51 89 54 87 4
-1 37 -40 75 -87z"/>
<path d="M3826 3170 c-2 -8 -17 -76 -32 -150 -14 -74 -29 -138 -33 -141 -3 -4
-64 0 -135 7 -71 8 -131 12 -133 11 -1 -2 3 -11 10 -21 11 -15 47 -22 193 -37
98 -11 182 -20 187 -22 4 -1 -38 -38 -93 -81 -95 -73 -116 -102 -84 -113 8 -3
277 198 353 264 3 2 -2 11 -11 19 -15 15 -20 14 -62 -16 -42 -31 -49 -32 -106
-27 -34 3 -63 7 -65 9 -1 1 8 57 21 123 28 144 28 146 10 171 -12 16 -15 16
-20 4z"/>
<path d="M6911 3069 c-66 -26 -133 -102 -151 -170 -20 -73 29 -139 102 -139
28 0 55 13 118 56 93 63 132 71 163 33 38 -47 -3 -136 -83 -181 -43 -25 -44
-26 -31 -46 18 -30 130 58 157 124 24 58 18 102 -20 140 -54 54 -94 47 -216
-37 -73 -50 -91 -54 -123 -28 -63 48 -4 166 104 209 18 7 35 14 37 15 1 1 0
10 -4 19 -7 18 -18 19 -53 5z"/>
<path d="M4060 2780 c0 -12 7 -20 18 -20 99 0 192 -92 192 -190 0 -120 -120
-214 -232 -181 -53 16 -125 86 -134 130 -6 29 -35 44 -47 23 -11 -16 24 -87
60 -125 104 -108 264 -103 350 11 94 125 50 285 -97 351 -61 28 -110 28 -110
1z"/>
<path d="M6573 2743 c-7 -2 -13 -9 -13 -14 0 -6 57 -78 127 -161 l128 -151
-59 -52 c-53 -47 -66 -75 -35 -75 6 0 70 51 144 113 115 96 132 114 120 126
-15 15 -10 18 -111 -64 -17 -13 -27 -16 -32 -9 -18 28 -246 294 -251 293 -3 0
-12 -3 -18 -6z"/>
<path d="M6268 2537 c-70 -40 -130 -75 -133 -79 -4 -3 -3 -13 2 -22 7 -12 27
-4 123 49 130 73 119 75 170 -25 l28 -55 -99 -55 c-54 -30 -99 -57 -99 -60 0
-3 4 -11 9 -19 9 -14 16 -11 168 76 l41 24 36 -64 c20 -35 36 -68 36 -73 0 -5
-50 -36 -110 -68 -61 -32 -110 -62 -110 -66 0 -4 6 -12 13 -18 9 -7 47 9 140
61 70 39 127 75 127 79 0 11 -184 346 -202 370 -12 15 -26 9 -140 -55z"/>
<path d="M4387 2358 c-6 -220 -5 -244 10 -255 9 -7 19 -13 23 -13 6 0 23 14
258 208 114 94 121 102 102 112 -19 10 -28 6 -72 -31 l-51 -42 -111 55 -112
56 4 63 c4 52 2 65 -14 76 -10 7 -21 13 -24 13 -4 0 -10 -109 -13 -242z m148
0 c47 -24 84 -46 83 -49 -4 -10 -188 -162 -191 -158 -7 13 6 249 13 249 6 0
48 -19 95 -42z"/>
<path d="M6033 2422 c-10 -6 -8 -23 7 -72 11 -36 20 -65 20 -66 0 -1 -34 -11
-75 -23 l-76 -23 -55 43 c-30 23 -57 46 -60 50 -7 11 -51 12 -58 1 -3 -5 26
-33 64 -62 l70 -54 -26 -27 c-60 -63 -43 -176 33 -226 37 -25 111 -21 217 10
49 15 91 28 92 30 8 8 -121 427 -131 427 -5 0 -15 -4 -22 -8z m69 -282 c15
-52 26 -100 24 -106 -5 -15 -118 -44 -169 -44 -97 0 -140 119 -68 184 23 21
146 66 171 63 9 -1 24 -37 42 -97z"/>
<path d="M4833 2365 c-42 -18 -66 -57 -66 -107 0 -34 6 -47 31 -69 27 -24 29
-29 13 -34 -32 -10 -62 -52 -68 -92 -4 -34 -1 -45 26 -76 18 -20 46 -40 64
-46 56 -18 219 -52 225 -47 9 10 99 421 93 427 -8 9 -234 59 -263 59 -13 -1
-37 -7 -55 -15z m171 -46 c50 -12 93 -23 94 -25 2 -1 -4 -39 -14 -84 -14 -65
-20 -79 -33 -76 -9 3 -53 14 -98 24 -45 11 -94 27 -108 36 -63 41 -29 143 49
145 10 1 60 -9 110 -20z m-19 -207 c39 -10 69 -21 69 -25 -21 -112 -29 -139
-39 -143 -23 -9 -178 36 -202 58 -31 29 -30 72 2 103 29 30 67 31 170 7z"/>
</g>
</svg>
