<?xml version="1.0" standalone="no"?>
<!DOCTYPE svg PUBLIC "-//W3C//DTD SVG 20010904//EN"
 "http://www.w3.org/TR/2001/REC-SVG-20010904/DTD/svg10.dtd">
<svg version="1.0" xmlns="http://www.w3.org/2000/svg"
 width="500.000000pt" height="500.000000pt" viewBox="0 0 500.000000 500.000000"
 preserveAspectRatio="xMidYMid meet">

<g transform="translate(0.000000,500.000000) scale(0.100000,-0.100000)"
fill="#000000" stroke="none">
<path d="M2665 4794 c-3 -38 -13 -127 -21 -197 -20 -179 -21 -169 24 -165 l37
3 5 55 5 55 95 -3 c86 -3 98 -2 129 20 55 37 75 71 75 128 0 87 -64 142 -178
154 -33 4 -84 9 -113 12 l-51 6 -7 -68z m223 -25 c12 -5 30 -24 39 -44 16 -33
16 -37 0 -70 -10 -20 -29 -40 -44 -46 -28 -10 -150 -3 -157 10 -3 4 0 44 6 90
l11 83 61 -7 c34 -4 71 -11 84 -16z"/>
<path d="M2252 4840 c-69 -16 -144 -98 -156 -169 -23 -143 78 -261 222 -261
74 0 124 19 170 63 45 43 64 91 64 157 0 156 -134 249 -300 210z m153 -80 c50
-31 68 -66 69 -132 1 -69 -20 -102 -85 -136 -100 -52 -207 12 -216 130 -5 62
17 106 69 138 44 27 120 27 163 0z"/>
<path d="M3152 4753 c-6 -21 -35 -113 -65 -205 l-54 -166 41 -15 c261 -90 275
-92 276 -42 0 17 -18 26 -107 54 -60 19 -110 36 -112 38 -9 7 32 113 44 113 8
0 50 -13 95 -30 45 -16 83 -30 86 -30 6 0 26 52 21 56 -2 2 -43 18 -93 35 -49
17 -91 33 -93 35 -6 6 23 104 31 104 5 0 56 -14 114 -32 90 -28 106 -30 114
-18 23 36 11 45 -128 89 -75 24 -142 46 -148 48 -6 2 -16 -13 -22 -34z"/>
<path d="M1717 4703 c-10 -3 -17 -10 -15 -16 86 -264 135 -397 145 -397 7 0
36 9 65 21 29 11 88 32 131 46 76 24 79 25 72 51 -4 15 -8 29 -10 30 -2 2 -51
-11 -109 -30 l-106 -34 -18 50 c-11 28 -36 104 -58 169 -41 123 -42 124 -97
110z"/>
<path d="M1430 4563 c-74 -41 -137 -77 -139 -79 -2 -2 1 -10 8 -18 10 -12 40
-64 172 -301 15 -27 31 -49 36 -48 8 1 264 142 271 148 3 3 -15 43 -23 53 -3
3 -114 -56 -169 -89 -17 -10 -35 -19 -41 -19 -10 1 -65 84 -65 98 0 4 41 28
90 55 87 46 89 48 78 72 -6 14 -16 25 -23 25 -6 0 -47 -20 -91 -45 -43 -25
-81 -45 -85 -45 -3 0 -17 20 -30 45 -29 54 -28 55 83 115 43 23 80 46 83 51 3
5 0 19 -7 33 l-13 24 -135 -75z"/>
<path d="M3547 4537 c-30 -50 -78 -132 -106 -182 l-51 -90 27 -22 c16 -13 30
-23 33 -23 3 0 18 25 35 55 16 30 32 54 35 52 3 -1 26 -13 52 -26 l47 -24 7
-79 7 -79 39 -20 c37 -19 39 -19 35 -2 -3 10 -8 48 -12 86 l-7 67 33 0 c42 0
95 34 116 73 24 47 22 117 -6 155 -23 33 -87 78 -178 125 l-52 27 -54 -93z
m151 -33 c70 -44 82 -59 82 -101 0 -45 -38 -83 -81 -83 -30 0 -152 57 -147 69
18 37 81 151 85 151 2 0 30 -16 61 -36z"/>
<path d="M1169 4404 c-25 -24 -25 -27 -13 -72 6 -26 17 -60 23 -75 20 -51 62
-209 57 -214 -2 -3 -76 29 -162 71 l-158 77 -28 -29 -29 -28 43 -21 c24 -12
97 -47 163 -78 66 -32 140 -68 165 -80 l46 -23 32 26 32 27 -71 220 c-39 121
-71 221 -73 222 -1 1 -13 -9 -27 -23z"/>
<path d="M3758 4099 c-24 -14 -23 -52 3 -75 19 -17 23 -17 47 -3 33 18 39 44
16 70 -19 21 -40 24 -66 8z"/>
<path d="M705 3943 c-49 -65 -90 -120 -90 -124 0 -6 88 -79 132 -109 12 -8 58
-43 103 -78 44 -35 86 -65 93 -67 7 -2 35 25 62 62 28 36 69 89 93 119 23 29
42 58 42 64 0 6 -11 16 -25 22 -21 10 -27 8 -44 -13 -10 -13 -35 -44 -55 -69
-20 -25 -41 -55 -48 -67 -15 -30 -21 -29 -71 9 -23 18 -44 34 -46 35 -2 2 9
20 25 41 17 20 45 56 64 80 l34 43 -23 22 -22 22 -17 -21 c-9 -11 -39 -49 -65
-83 l-48 -62 -44 32 c-25 18 -45 35 -45 38 0 4 18 29 40 56 21 28 53 68 70 89
l31 40 -23 18 c-13 10 -25 18 -28 18 -3 0 -45 -53 -95 -117z"/>
<path d="M4255 3995 c-60 -18 -157 -45 -215 -61 -58 -15 -107 -29 -108 -30 -2
-1 6 -16 18 -32 l22 -30 54 16 c30 8 56 13 57 11 2 -2 33 -41 69 -85 l67 -82
-25 -46 -25 -46 23 -30 c12 -17 25 -27 29 -23 10 11 185 363 193 391 5 15 1
31 -14 52 -12 17 -24 30 -28 29 -4 0 -56 -16 -117 -34z m85 -50 c0 -11 -80
-164 -88 -169 -10 -6 -102 97 -102 113 0 6 8 11 18 12 9 0 49 11 87 24 78 26
85 27 85 20z"/>
<path d="M4435 3634 c-88 -47 -172 -90 -187 -95 -27 -11 -27 -11 -11 -45 9
-19 21 -34 27 -34 6 0 31 11 54 25 24 14 48 22 54 19 5 -3 21 -30 35 -60 62
-131 177 -165 268 -80 33 31 35 37 35 95 0 54 -6 73 -51 161 -28 55 -54 100
-58 99 -3 0 -78 -39 -166 -85z m183 -78 c38 -75 40 -96 8 -133 -19 -21 -33
-28 -64 -28 -22 0 -47 7 -57 15 -16 14 -79 129 -73 135 6 5 143 74 148 75 3 0
20 -29 38 -64z"/>
<path d="M543 3609 c-58 -28 -86 -64 -144 -183 -27 -55 -49 -101 -49 -103 0
-3 274 -136 339 -165 24 -10 48 -15 52 -11 4 4 29 55 54 111 44 98 47 108 43
175 -3 61 -8 78 -33 111 -59 78 -177 107 -262 65z m130 -65 c102 -35 128 -124
72 -241 -17 -35 -33 -63 -36 -63 -9 0 -252 111 -261 119 -8 8 44 119 71 150
17 19 76 49 102 51 3 0 27 -7 52 -16z"/>
<path d="M4735 3259 c-27 -11 -113 -40 -190 -66 -77 -25 -141 -46 -143 -48 -1
-1 4 -18 10 -37 l13 -35 197 66 c108 36 199 69 202 72 9 9 -15 69 -27 69 -7
-1 -34 -10 -62 -21z"/>
<path d="M365 2963 c-35 -9 -84 -52 -110 -98 -21 -34 -29 -68 -39 -162 -7 -65
-12 -120 -10 -122 4 -4 251 -36 350 -45 l71 -7 7 38 c4 21 9 85 12 143 6 98 4
108 -18 150 -38 69 -91 102 -175 106 -37 1 -77 0 -88 -3z m154 -91 c56 -41 66
-67 64 -159 -1 -47 -6 -90 -10 -94 -5 -5 -71 -1 -148 9 l-140 17 -3 33 c-5 51
17 140 42 167 54 58 138 69 195 27z"/>
<path d="M4647 2872 c-24 -3 -28 -7 -23 -26 3 -12 8 -48 12 -79 7 -56 7 -57
39 -57 l32 0 -13 81 c-7 45 -14 82 -16 83 -2 1 -16 0 -31 -2z"/>
<path d="M4526 2437 c-4 -18 -2 -33 4 -37 6 -4 57 -13 112 -20 56 -7 113 -16
127 -20 24 -7 25 -8 6 -15 -11 -4 -42 -18 -70 -30 -27 -12 -73 -32 -102 -45
-75 -32 -73 -46 15 -116 41 -32 89 -71 106 -86 38 -33 34 -34 -109 -13 -146
21 -145 21 -145 -19 l0 -34 78 -11 c85 -13 320 -41 340 -41 7 0 12 13 12 33
-1 25 -8 37 -38 59 -96 69 -207 160 -207 169 0 6 41 29 90 51 201 88 203 89
207 119 3 16 3 29 1 29 -2 0 -79 11 -171 24 -270 39 -249 39 -256 3z"/>
<path d="M445 2430 c-72 -10 -156 -21 -187 -24 l-57 -7 6 -32 c3 -18 7 -34 9
-35 1 -2 65 3 141 11 76 8 139 14 140 13 1 -1 -56 -62 -127 -136 -97 -101
-130 -142 -130 -161 0 -14 2 -28 5 -30 5 -6 89 2 293 27 132 17 132 17 132 43
0 50 -5 51 -150 32 -74 -10 -137 -17 -139 -15 -2 2 55 64 126 138 119 123 129
137 125 165 -5 37 -1 37 -187 11z"/>
<path d="M646 2007 c-16 -11 -14 -20 22 -124 l38 -112 -54 -21 c-30 -11 -56
-19 -57 -18 -7 8 -54 131 -60 157 -7 31 -19 37 -49 25 -23 -9 -20 -29 14 -118
17 -44 27 -82 23 -86 -9 -8 -83 -35 -97 -35 -7 0 -60 138 -73 193 -5 20 -10
22 -32 17 -14 -4 -28 -9 -31 -11 -6 -7 92 -294 100 -294 7 0 323 109 374 129
15 6 26 17 24 24 -3 6 -27 74 -53 150 -26 75 -53 137 -59 137 -7 0 -20 -6 -30
-13z"/>
<path d="M4447 1948 c-14 -32 -14 -34 25 -71 l39 -38 -37 -92 c-19 -51 -39
-96 -44 -100 -4 -5 -32 -12 -61 -15 -48 -6 -54 -10 -66 -41 l-14 -34 148 7
c81 3 188 9 237 13 l88 6 15 34 14 35 -148 152 c-188 192 -179 185 -196 144z
m185 -229 c37 -39 68 -73 68 -75 0 -2 -45 -4 -101 -4 -77 0 -100 3 -96 13 2 6
14 40 27 75 12 34 25 62 28 62 3 0 36 -32 74 -71z"/>
<path d="M665 1576 c-18 -13 -17 -16 19 -82 21 -38 39 -70 41 -72 3 -3 43 15
53 23 2 1 -13 30 -33 63 -19 33 -35 65 -35 71 0 15 -22 14 -45 -3z"/>
<path d="M4280 1521 c-75 -50 -122 -127 -123 -203 -1 -40 4 -53 27 -77 58 -60
113 -49 215 43 35 31 72 56 82 56 26 0 49 -27 49 -59 0 -35 -62 -118 -97 -132
-24 -9 -24 -11 -10 -32 21 -33 41 -32 81 4 133 117 115 303 -29 287 -36 -5
-57 -16 -115 -67 -71 -61 -104 -73 -128 -49 -36 36 20 144 96 182 37 19 38 23
14 54 l-18 23 -44 -30z"/>
<path d="M858 1357 l-35 -142 -59 0 c-32 0 -92 3 -132 8 l-73 7 25 -33 c25
-33 28 -34 138 -46 146 -15 188 -22 188 -30 -1 -3 -32 -28 -71 -56 -100 -71
-102 -74 -74 -107 l24 -27 68 52 c37 29 78 59 90 67 16 12 92 68 182 136 2 2
-8 17 -22 33 l-25 30 -38 -29 c-30 -23 -50 -30 -87 -30 -32 0 -49 5 -53 14 -4
11 22 145 41 207 3 9 -8 32 -23 52 l-29 36 -35 -142z"/>
<path d="M3981 1156 l-23 -25 83 -79 c46 -44 106 -100 133 -126 l50 -46 -40
-42 c-21 -24 -43 -46 -49 -50 -5 -4 -1 -16 10 -30 11 -13 20 -24 21 -26 1 -3
153 154 212 219 l42 46 -21 22 -22 23 -52 -52 -52 -52 -45 44 c-159 152 -208
198 -216 198 -5 0 -19 -11 -31 -24z"/>
<path d="M1114 1094 c3 -9 6 -24 6 -34 0 -13 10 -19 41 -23 118 -16 176 -159
102 -248 -80 -95 -212 -75 -265 41 -19 42 -27 50 -50 50 -24 0 -28 -4 -28 -27
0 -48 53 -123 111 -160 46 -28 62 -33 115 -33 76 0 100 9 149 52 100 87 100
235 -1 331 -55 53 -196 92 -180 51z"/>
<path d="M3798 983 c-21 -15 -52 -38 -70 -51 -39 -27 -141 -102 -147 -108 -2
-2 4 -15 13 -29 l17 -25 67 47 c37 26 80 57 95 70 16 13 32 23 36 23 6 0 71
-86 71 -94 0 -2 -36 -30 -80 -62 -44 -32 -80 -63 -80 -70 0 -6 8 -18 18 -27
16 -14 23 -11 97 44 44 32 82 59 85 59 7 0 60 -77 60 -87 0 -5 -40 -38 -89
-74 -50 -35 -90 -66 -90 -69 0 -3 8 -16 18 -29 l18 -24 89 66 c49 36 106 78
126 93 l37 27 -42 57 c-23 32 -74 102 -114 156 -39 55 -78 107 -85 117 -13 17
-16 17 -50 -10z"/>
<path d="M1446 867 c-8 -47 -38 -439 -34 -442 2 -1 18 -9 36 -18 l32 -16 73
56 c39 30 123 93 185 140 61 46 110 88 107 93 -2 4 -18 13 -34 20 -27 11 -33
9 -71 -21 l-41 -33 -62 33 c-137 74 -130 67 -124 127 5 52 5 53 -28 73 l-34
20 -5 -32z m105 -207 c22 -12 53 -29 70 -39 l29 -18 -64 -47 c-36 -26 -70 -54
-77 -62 -22 -27 -31 -15 -25 34 16 134 18 152 22 152 3 0 23 -9 45 -20z"/>
<path d="M3487 778 c-31 -11 -30 -22 4 -91 l19 -37 -53 -26 -54 -27 -62 38
c-59 36 -63 38 -101 26 -23 -7 -38 -16 -35 -21 3 -4 34 -25 70 -45 36 -20 65
-39 65 -42 0 -4 -7 -14 -16 -24 -26 -29 -29 -90 -6 -135 30 -59 55 -77 117
-82 56 -5 71 0 216 65 l56 26 -88 191 c-49 105 -92 192 -96 193 -4 1 -21 -3
-36 -9z m82 -256 c17 -38 31 -76 31 -84 0 -19 -99 -61 -143 -61 -60 0 -97 79
-61 131 13 19 114 80 135 82 3 0 20 -31 38 -68z"/>
<path d="M1864 640 c-53 -21 -72 -115 -33 -164 12 -15 20 -28 18 -30 -2 -1
-16 -10 -31 -19 -39 -24 -53 -81 -30 -126 9 -20 31 -43 48 -53 42 -24 245 -81
254 -71 4 4 18 48 33 98 14 50 39 137 56 194 31 106 31 121 5 121 -8 0 -60 14
-116 30 -100 30 -164 36 -204 20z m173 -73 c40 -12 73 -25 74 -30 1 -15 -23
-117 -28 -117 -3 0 -43 12 -90 26 -111 35 -139 77 -87 129 21 20 46 19 131 -8z
m-32 -185 c33 -10 59 -22 58 -28 -17 -72 -29 -104 -37 -104 -27 0 -140 41
-157 56 -39 35 -11 94 45 94 17 0 58 -8 91 -18z"/>
<path d="M3106 627 c-12 -9 -17 -23 -14 -47 3 -30 7 -35 31 -38 53 -6 78 46
39 81 -22 20 -33 21 -56 4z"/>
</g>
</svg>
